REM DIRINDEX 1\2,1\3,1\4,1\5
REM DIRNAME cjc004,folder01,folder02,folder03,folder04
TITLE ""
FILE "1Q_t_1659-1668.mp3" MP3
  TRACK 01 AUDIO
    TITLE "3:cjc004_5884"
    INDEX 01 00:00:00
  TRACK 02 AUDIO
    TITLE "0:"
    INDEX 01 00:01:17
  TRACK 03 AUDIO
    TITLE "4:cjc004_5885"
    INDEX 01 00:01:48
  TRACK 04 AUDIO
    TITLE "0:"
    INDEX 01 00:02:45
  TRACK 05 AUDIO
    TITLE "5:cjc004_5886"
    INDEX 01 00:02:71
  TRACK 06 AUDIO
    TITLE "0:"
    INDEX 01 00:07:31
  TRACK 07 AUDIO
    TITLE "3:cjc004_5887"
    INDEX 01 00:08:11
  TRACK 08 AUDIO
    TITLE "0:"
    INDEX 01 00:09:16
  TRACK 09 AUDIO
    TITLE "4:cjc004_5888"
    INDEX 01 00:09:49
  TRACK 10 AUDIO
    TITLE "0:"
    INDEX 01 00:11:03
  TRACK 11 AUDIO
    TITLE "5:cjc004_5889"
    INDEX 01 00:11:31
  TRACK 12 AUDIO
    TITLE "0:"
    INDEX 01 00:15:38
  TRACK 13 AUDIO
    TITLE "3:cjc004_5890"
    INDEX 01 00:16:20
  TRACK 14 AUDIO
    TITLE "0:"
    INDEX 01 00:17:43
  TRACK 15 AUDIO
    TITLE "4:cjc004_5891"
    INDEX 01 00:17:69
  TRACK 16 AUDIO
    TITLE "0:"
    INDEX 01 00:19:16
  TRACK 17 AUDIO
    TITLE "5:cjc004_5892"
    INDEX 01 00:19:40
  TRACK 18 AUDIO
    TITLE "0:"
    INDEX 01 00:24:59
  TRACK 19 AUDIO
    TITLE "3:cjc004_5893"
    INDEX 01 00:25:35
  TRACK 20 AUDIO
    TITLE "0:"
    INDEX 01 00:26:58
  TRACK 21 AUDIO
    TITLE "4:cjc004_5894"
    INDEX 01 00:27:10
  TRACK 22 AUDIO
    TITLE "0:"
    INDEX 01 00:28:08
  TRACK 23 AUDIO
    TITLE "5:cjc004_5895"
    INDEX 01 00:28:33
  TRACK 24 AUDIO
    TITLE "0:"
    INDEX 01 00:32:37
  TRACK 25 AUDIO
    TITLE "3:cjc004_5896"
    INDEX 01 00:33:15
  TRACK 26 AUDIO
    TITLE "0:"
    INDEX 01 00:34:32
  TRACK 27 AUDIO
    TITLE "4:cjc004_5897"
    INDEX 01 00:34:61
  TRACK 28 AUDIO
    TITLE "0:"
    INDEX 01 00:35:47
  TRACK 29 AUDIO
    TITLE "5:cjc004_5898"
    INDEX 01 00:35:74
  TRACK 30 AUDIO
    TITLE "0:"
    INDEX 01 00:39:64
  TRACK 31 AUDIO
    TITLE "3:cjc004_5899"
    INDEX 01 00:40:38
  TRACK 32 AUDIO
    TITLE "0:"
    INDEX 01 00:41:61
  TRACK 33 AUDIO
    TITLE "4:cjc004_5900"
    INDEX 01 00:42:18
  TRACK 34 AUDIO
    TITLE "0:"
    INDEX 01 00:43:33
  TRACK 35 AUDIO
    TITLE "5:cjc004_5901"
    INDEX 01 00:43:56
  TRACK 36 AUDIO
    TITLE "0:"
    INDEX 01 00:48:06
  TRACK 37 AUDIO
    TITLE "3:cjc004_5902"
    INDEX 01 00:48:57
  TRACK 38 AUDIO
    TITLE "0:"
    INDEX 01 00:50:05
  TRACK 39 AUDIO
    TITLE "4:cjc004_5903"
    INDEX 01 00:50:29
  TRACK 40 AUDIO
    TITLE "0:"
    INDEX 01 00:51:36
  TRACK 41 AUDIO
    TITLE "5:cjc004_5904"
    INDEX 01 00:51:62
  TRACK 42 AUDIO
    TITLE "0:"
    INDEX 01 00:57:17
  TRACK 43 AUDIO
    TITLE "3:cjc004_5905"
    INDEX 01 00:57:62
  TRACK 44 AUDIO
    TITLE "0:"
    INDEX 01 00:59:12
  TRACK 45 AUDIO
    TITLE "4:cjc004_5906"
    INDEX 01 00:59:41
  TRACK 46 AUDIO
    TITLE "0:"
    INDEX 01 01:01:03
  TRACK 47 AUDIO
    TITLE "5:cjc004_5907"
    INDEX 01 01:01:27
  TRACK 48 AUDIO
    TITLE "0:"
    INDEX 01 01:06:10
  TRACK 49 AUDIO
    TITLE "3:cjc004_5908"
    INDEX 01 01:06:59
  TRACK 50 AUDIO
    TITLE "0:"
    INDEX 01 01:08:07
  TRACK 51 AUDIO
    TITLE "4:cjc004_5909"
    INDEX 01 01:08:31
  TRACK 52 AUDIO
    TITLE "0:"
    INDEX 01 01:09:48
  TRACK 53 AUDIO
    TITLE "5:cjc004_5910"
    INDEX 01 01:10:00
  TRACK 54 AUDIO
    TITLE "0:"
    INDEX 01 01:16:05
  TRACK 55 AUDIO
    TITLE "3:cjc004_5911"
    INDEX 01 01:16:60
  TRACK 56 AUDIO
    TITLE "0:"
    INDEX 01 01:17:63
  TRACK 57 AUDIO
    TITLE "4:cjc004_5912"
    INDEX 01 01:18:21
  TRACK 58 AUDIO
    TITLE "0:"
    INDEX 01 01:19:34
  TRACK 59 AUDIO
    TITLE "5:cjc004_5913"
    INDEX 01 01:19:62
  TRACK 60 AUDIO
    TITLE "0:"
    INDEX 01 01:23:65
